# xmcd
#
# Track frame offsets: 
#        150
#        22443
#        42131
#        65017
#        86168
#        105193
#        126318
#        144869
#        166694
#        189181
#        209507
#        227374
#
# Disc length: 3257 seconds
#
# Revision: 0
# Processed by: cddbd v1.5.2PL0 Copyright (c) Steve Scherf et al.
# Submitted via: ExactAudioCopy v1.0b1
#
DISCID=9b0cb70c
DTITLE=苏曼 - 壹玖柒零
DYEAR=2011
DGENRE=Vocal
TTITLE0=故乡
TTITLE1=老照片
TTITLE2=那年的消息
TTITLE3=青春的记忆
TTITLE4=忆
TTITLE5=你和我
TTITLE6=相逢在何方
TTITLE7=不曾改变
TTITLE8=昨日
TTITLE9=忽然间
TTITLE10=光阴的小船
TTITLE11=那里
EXTD=
EXTT0=故乡
EXTT1=老照片
EXTT2=那年的消息
EXTT3=青春的记忆
EXTT4=忆
EXTT5=你和我
EXTT6=相逢在何方
EXTT7=不曾改变
EXTT8=昨日
EXTT9=忽然间
EXTT10=光阴的小船
EXTT11=那里
PLAYORDER=
